<?xml version="1.0" encoding="utf-8"?>
<!-- Generator: Adobe Illustrator 18.0.0, SVG Export Plug-In . SVG Version: 6.00 Build 0)  -->
<!DOCTYPE svg PUBLIC "-//W3C//DTD SVG 1.1//EN" "http://www.w3.org/Graphics/SVG/1.1/DTD/svg11.dtd">
<svg version="1.1" id="icon_x2B_text" xmlns="http://www.w3.org/2000/svg" xmlns:xlink="http://www.w3.org/1999/xlink" x="0px"
	 y="0px" viewBox="0 0 416.7 372" enable-background="new 0 0 416.7 372" xml:space="preserve">
<g>
	<g>
		<polygon fill="#FFFFFF" points="333.4,237.8 416.3,237.8 333.7,0 250.1,0 		"/>
		<polygon fill="#EEEEEE" points="166.9,237.8 250.4,237.8 333.7,0 250.1,0 		"/>
		<polygon fill="#CCCCCC" points="333.7,0 291.9,119.4 301.5,146.8 		"/>
	</g>
	<g>
		<polygon fill="#FFFFFF" points="166.9,237.8 249.8,237.8 167.2,0 83.6,0 		"/>
		<polygon fill="#EEEEEE" points="0.3,237.8 83.9,237.8 167.2,0 83.6,0 		"/>
		<polygon fill="#CCCCCC" points="167.2,0 125.4,119.3 135,146.8 		"/>
	</g>
</g>
<g>
	<path fill="#FFFFFF" d="M80.9,355.6H78v10h-1.7v-21.3H78v9.8h2.9l8.4-9.8h2l0,0.1l-8.8,10.4l9.4,10.8l0,0.1h-2.1L80.9,355.6z"/>
	<path fill="#FFFFFF" d="M96.7,345.3h-1.7v-2.5h1.7V345.3z M96.7,365.6h-1.7v-15.8h1.7V365.6z"/>
	<path fill="#FFFFFF" d="M103.9,345.7v4.1h3.5v1.4h-3.5v10.3c0,1,0.2,1.8,0.6,2.2s0.9,0.7,1.5,0.7c0.3,0,0.6,0,0.8,0
		s0.6-0.1,0.9-0.1l0.3,1.3c-0.3,0.1-0.6,0.2-1.1,0.3s-0.8,0.1-1.3,0.1c-1.1,0-2-0.4-2.6-1.1s-0.9-1.8-0.9-3.3v-10.3h-2.7v-1.4h2.7
		v-4.1H103.9z"/>
	<path fill="#FFFFFF" d="M116,364.5c1.2,0,2.2-0.3,3.1-1s1.3-1.6,1.3-2.8h1.6l0,0.1c0,1.5-0.5,2.7-1.8,3.7s-2.6,1.5-4.2,1.5
		c-2.2,0-3.8-0.7-5-2.2s-1.8-3.4-1.8-5.7v-0.6c0-2.3,0.6-4.2,1.8-5.7s2.8-2.2,5-2.2c1.7,0,3.2,0.5,4.3,1.5s1.7,2.4,1.7,4l0,0.1h-1.6
		c0-1.3-0.4-2.3-1.3-3s-1.9-1.1-3.1-1.1c-1.7,0-3,0.6-3.8,1.8s-1.2,2.7-1.2,4.6v0.6c0,1.9,0.4,3.4,1.2,4.6
		C113,363.9,114.2,364.5,116,364.5z"/>
	<path fill="#FFFFFF" d="M127,352.5c0.5-0.9,1.2-1.7,2.1-2.2s1.9-0.8,3.1-0.8c1.7,0,3,0.5,3.8,1.6s1.3,2.6,1.3,4.8v9.8h-1.8v-9.8
		c0-1.7-0.3-3-1-3.7s-1.6-1.1-2.8-1.1c-1.2,0-2.2,0.3-3,0.9c-0.8,0.6-1.4,1.5-1.8,2.5v11.2h-1.8v-22.9h1.8V352.5z"/>
	<path fill="#FFFFFF" d="M147.5,366c-2,0-3.6-0.7-4.9-2.2s-2-3.3-2-5.6v-0.8c0-2.3,0.7-4.1,2-5.6s2.9-2.2,4.7-2.2
		c1.9,0,3.5,0.6,4.6,1.8s1.7,2.9,1.7,4.9v1.5h-11.2v0.4c0,1.8,0.5,3.3,1.4,4.5c0.9,1.2,2.2,1.8,3.7,1.8c1.1,0,2-0.2,2.8-0.5
		s1.4-0.7,2-1.3l0.7,1.2c-0.6,0.6-1.4,1.1-2.3,1.5C149.8,365.8,148.7,366,147.5,366z M147.3,351c-1.3,0-2.4,0.5-3.3,1.5
		c-0.9,1-1.4,2.2-1.5,3.7l0,0.1h9.3v-0.4c0-1.4-0.4-2.5-1.2-3.4S148.6,351,147.3,351z"/>
	<path fill="#FFFFFF" d="M158.2,349.8l0.2,2.8c0.5-1,1.2-1.7,2.1-2.3s1.9-0.8,3.1-0.8c1.7,0,3,0.5,3.9,1.6s1.3,2.7,1.3,4.9v9.7H167
		V356c0-1.8-0.3-3.1-1-3.9s-1.6-1.1-2.9-1.1c-1.2,0-2.2,0.3-3,1c-0.8,0.7-1.3,1.5-1.7,2.6v11.1h-1.8v-15.8H158.2z"/>
	<path fill="#FFFFFF" d="M193.3,360.4c0-1.2-0.4-2.1-1.3-2.8c-0.9-0.7-2.4-1.4-4.5-2c-2.3-0.6-4.1-1.3-5.3-2.3s-1.8-2.2-1.8-3.8
		c0-1.6,0.7-3,2-4s3.1-1.5,5.2-1.5c2.2,0,4,0.6,5.3,1.8s2,2.7,2,4.5l0,0.1h-1.6c0-1.4-0.5-2.6-1.5-3.5s-2.4-1.4-4.1-1.4
		c-1.7,0-3,0.4-4,1.1s-1.4,1.7-1.4,2.8c0,1.1,0.4,2,1.3,2.7s2.4,1.4,4.6,1.9c2.3,0.6,4,1.4,5.2,2.4s1.8,2.3,1.8,3.9
		c0,1.7-0.7,3.1-2.1,4.1s-3.2,1.5-5.3,1.5c-2.1,0-4-0.5-5.6-1.6s-2.4-2.6-2.3-4.7l0-0.1h1.6c0,1.7,0.6,2.9,1.9,3.7
		c1.2,0.8,2.7,1.2,4.4,1.2c1.7,0,3.1-0.4,4.1-1.1S193.3,361.6,193.3,360.4z"/>
	<path fill="#FFFFFF" d="M208.7,363.1c-0.5,0.9-1.2,1.6-2.1,2.1s-1.9,0.8-3,0.8c-1.7,0-3-0.6-3.9-1.7s-1.4-2.9-1.4-5.3v-9.2h1.8v9.2
		c0,1.9,0.3,3.3,1,4.2s1.6,1.3,2.8,1.3c1.3,0,2.4-0.3,3.2-0.9c0.8-0.6,1.3-1.4,1.7-2.5v-11.3h1.8v15.8h-1.6L208.7,363.1z"/>
	<path fill="#FFFFFF" d="M227.3,358.2c0,2.4-0.5,4.3-1.6,5.7s-2.6,2.1-4.4,2.1c-1.1,0-2.1-0.2-2.9-0.6s-1.5-1-2-1.8v8.2h-1.8v-21.9
		h1.5l0.2,2.5c0.5-0.9,1.2-1.6,2-2s1.8-0.7,3-0.7c1.9,0,3.4,0.8,4.5,2.3s1.6,3.5,1.6,6.1V358.2z M225.5,357.8c0-2-0.4-3.7-1.2-4.9
		c-0.8-1.3-2-1.9-3.5-1.9c-1.2,0-2.1,0.3-2.9,0.8s-1.3,1.3-1.7,2.2v7.6c0.4,0.9,1,1.6,1.7,2.1s1.7,0.7,2.8,0.7
		c1.5,0,2.7-0.6,3.5-1.7c0.8-1.2,1.2-2.7,1.2-4.6V357.8z"/>
	<path fill="#FFFFFF" d="M243.5,358.2c0,2.4-0.5,4.3-1.6,5.7s-2.6,2.1-4.4,2.1c-1.1,0-2.1-0.2-2.9-0.6s-1.5-1-2-1.8v8.2h-1.8v-21.9
		h1.5l0.2,2.5c0.5-0.9,1.2-1.6,2-2s1.8-0.7,3-0.7c1.9,0,3.4,0.8,4.5,2.3s1.6,3.5,1.6,6.1V358.2z M241.8,357.8c0-2-0.4-3.7-1.2-4.9
		c-0.8-1.3-2-1.9-3.5-1.9c-1.2,0-2.1,0.3-2.9,0.8s-1.3,1.3-1.7,2.2v7.6c0.4,0.9,1,1.6,1.7,2.1s1.7,0.7,2.8,0.7
		c1.5,0,2.7-0.6,3.5-1.7c0.8-1.2,1.2-2.7,1.2-4.6V357.8z"/>
	<path fill="#FFFFFF" d="M248.9,365.6h-1.7v-22.9h1.7V365.6z"/>
	<path fill="#FFFFFF" d="M257.9,361.4l0.6,1.9h0.1l4.8-13.4h2l-6.9,18.4c-0.4,1.1-0.9,2-1.6,2.7s-1.6,1.1-2.9,1.1
		c-0.2,0-0.5,0-0.7-0.1s-0.5-0.1-0.6-0.1l0.2-1.5c0.1,0,0.3,0,0.6,0.1s0.4,0,0.6,0c0.8,0,1.4-0.3,1.8-0.8c0.5-0.5,0.8-1.2,1.2-2.1
		l0.8-2.1l-6.1-15.6h1.9L257.9,361.4z"/>
	<path fill="#FFFFFF" d="M288.1,360.4c0-1.2-0.4-2.1-1.3-2.8c-0.9-0.7-2.4-1.4-4.5-2c-2.3-0.6-4.1-1.3-5.3-2.3s-1.8-2.2-1.8-3.8
		c0-1.6,0.7-3,2-4s3.1-1.5,5.2-1.5c2.2,0,4,0.6,5.3,1.8s2,2.7,2,4.5l0,0.1h-1.6c0-1.4-0.5-2.6-1.5-3.5s-2.4-1.4-4.1-1.4
		c-1.7,0-3,0.4-4,1.1s-1.4,1.7-1.4,2.8c0,1.1,0.4,2,1.3,2.7s2.4,1.4,4.6,1.9c2.3,0.6,4,1.4,5.2,2.4s1.8,2.3,1.8,3.9
		c0,1.7-0.7,3.1-2.1,4.1s-3.2,1.5-5.3,1.5c-2.1,0-4-0.5-5.6-1.6s-2.4-2.6-2.3-4.7l0-0.1h1.6c0,1.7,0.6,2.9,1.9,3.7
		c1.2,0.8,2.7,1.2,4.4,1.2c1.7,0,3.1-0.4,4.1-1.1S288.1,361.6,288.1,360.4z"/>
	<path fill="#FFFFFF" d="M296.5,345.7v4.1h3.5v1.4h-3.5v10.3c0,1,0.2,1.8,0.6,2.2s0.9,0.7,1.5,0.7c0.3,0,0.6,0,0.8,0
		s0.6-0.1,0.9-0.1l0.3,1.3c-0.3,0.1-0.6,0.2-1.1,0.3s-0.8,0.1-1.3,0.1c-1.1,0-2-0.4-2.6-1.1s-0.9-1.8-0.9-3.3v-10.3H292v-1.4h2.7
		v-4.1H296.5z"/>
	<path fill="#FFFFFF" d="M301.7,357.5c0-2.3,0.6-4.2,1.9-5.7s3-2.2,5.1-2.2c2.1,0,3.8,0.7,5.1,2.2s1.9,3.4,1.9,5.7v0.5
		c0,2.3-0.6,4.3-1.9,5.7s-3,2.2-5.1,2.2c-2.1,0-3.8-0.7-5.1-2.2s-1.9-3.4-1.9-5.7V357.5z M303.4,358c0,1.8,0.5,3.4,1.4,4.6
		c0.9,1.2,2.2,1.9,3.9,1.9c1.6,0,2.9-0.6,3.8-1.9c0.9-1.2,1.4-2.8,1.4-4.6v-0.5c0-1.8-0.5-3.3-1.4-4.6s-2.2-1.9-3.9-1.9
		s-2.9,0.6-3.9,1.9s-1.4,2.8-1.4,4.6V358z"/>
	<path fill="#FFFFFF" d="M326.3,351.3l-1.3-0.1c-1.1,0-2,0.3-2.7,0.9s-1.2,1.5-1.5,2.6v10.9H319v-15.8h1.5l0.2,2.6v0.2
		c0.5-1,1.1-1.7,1.8-2.3s1.7-0.8,2.8-0.8c0.2,0,0.4,0,0.7,0.1s0.4,0.1,0.5,0.1L326.3,351.3z"/>
	<path fill="#FFFFFF" d="M334.4,366c-2,0-3.6-0.7-4.9-2.2s-2-3.3-2-5.6v-0.8c0-2.3,0.7-4.1,2-5.6s2.9-2.2,4.7-2.2
		c1.9,0,3.5,0.6,4.6,1.8s1.7,2.9,1.7,4.9v1.5h-11.2v0.4c0,1.8,0.5,3.3,1.4,4.5c0.9,1.2,2.2,1.8,3.7,1.8c1.1,0,2-0.2,2.8-0.5
		s1.4-0.7,2-1.3l0.7,1.2c-0.6,0.6-1.4,1.1-2.3,1.5C336.7,365.8,335.7,366,334.4,366z M334.2,351c-1.3,0-2.4,0.5-3.3,1.5
		c-0.9,1-1.4,2.2-1.5,3.7l0,0.1h9.3v-0.4c0-1.4-0.4-2.5-1.2-3.4S335.6,351,334.2,351z"/>
</g>
<g>
	<path fill="#FFFFFF" d="M6.1,267.8L27,317.8h0.2l21-50.1h6.2v56.9h-4.6v-25.1l0.4-24.9l-0.2-0.1l-21.1,50.1h-3.2L4.5,274.8l-0.2,0
		l0.4,24.7v25.1H0v-56.9H6.1z"/>
	<path fill="#FFFFFF" d="M70.3,270.3h-4.6v-6.6h4.6V270.3z M70.3,324.6h-4.6v-42.3h4.6V324.6z"/>
	<path fill="#FFFFFF" d="M96.7,321.5c3.1,0,5.8-0.9,8.2-2.6c2.4-1.8,3.6-4.2,3.6-7.4h4.1l0.1,0.2c0.1,3.9-1.4,7.2-4.7,9.8
		c-3.3,2.6-7,3.9-11.3,3.9c-5.8,0-10.2-2-13.3-5.9c-3.1-3.9-4.7-9-4.7-15.2v-1.6c0-6.1,1.6-11.2,4.7-15.2c3.2-4,7.6-5.9,13.3-5.9
		c4.6,0,8.5,1.4,11.6,4.1c3.1,2.7,4.6,6.3,4.5,10.8l-0.1,0.2h-4.2c0-3.4-1.1-6.1-3.4-8.1s-5.1-3-8.4-3c-4.5,0-7.9,1.6-10.1,4.9
		c-2.2,3.2-3.3,7.3-3.3,12.2v1.6c0,5,1.1,9.1,3.2,12.3C88.7,319.9,92.1,321.5,96.7,321.5z"/>
	<path fill="#FFFFFF" d="M139.8,286.4l-3.5-0.2c-2.9,0-5.4,0.8-7.2,2.5c-1.9,1.7-3.2,3.9-4,6.8v29.2h-4.7v-42.3h4.1l0.6,7v0.5
		c1.2-2.6,2.9-4.6,4.9-6.1c2.1-1.5,4.5-2.2,7.3-2.2c0.6,0,1.2,0,1.7,0.1c0.6,0.1,1,0.2,1.4,0.3L139.8,286.4z"/>
	<path fill="#FFFFFF" d="M141.9,302.9c0-6.2,1.7-11.3,5.1-15.3c3.4-4,7.9-6,13.6-6c5.7,0,10.2,2,13.6,6c3.4,4,5.1,9.1,5.1,15.3v1.3
		c0,6.2-1.7,11.4-5.1,15.3c-3.4,4-7.9,6-13.5,6c-5.7,0-10.2-2-13.6-6c-3.4-4-5.1-9.1-5.1-15.3V302.9z M146.6,304.1
		c0,4.9,1.2,9,3.7,12.3c2.5,3.3,5.9,5,10.4,5c4.3,0,7.8-1.7,10.3-5c2.5-3.3,3.7-7.4,3.7-12.3v-1.3c0-4.8-1.2-8.9-3.7-12.3
		c-2.5-3.4-5.9-5-10.3-5c-4.4,0-7.8,1.7-10.3,5c-2.5,3.4-3.7,7.4-3.7,12.3V304.1z"/>
	<path fill="#FFFFFF" d="M199,296.9h-8.7v27.8h-2.1v-56.9h2.1v27h9.3l24.1-27h2.5l0.1,0.2l-25,28.2l26.8,28.3l-0.1,0.2h-2.5
		L199,296.9z"/>
	<path fill="#FFFFFF" d="M237.9,269.1h-2.1v-5.4h2.1V269.1z M237.9,324.6h-2.1v-42.3h2.1V324.6z"/>
	<path fill="#FFFFFF" d="M253.8,271v11.4h10.4v2.1h-10.4v29.2c0,3.5,0.6,5.9,1.8,7.4c1.2,1.5,2.7,2.2,4.6,2.2c0.7,0,1.3,0,1.9-0.1
		c0.5-0.1,1.3-0.1,2.3-0.3l0.4,1.9c-0.7,0.2-1.3,0.4-2,0.4s-1.5,0.1-2.4,0.1c-2.8,0-5-0.9-6.5-2.8c-1.5-1.8-2.2-4.8-2.2-8.9v-29.2
		h-7.8v-2.1h7.8V271H253.8z"/>
	<path fill="#FFFFFF" d="M283.6,323.3c3.6,0,6.7-1,9.5-2.9c2.7-2,4.1-4.9,4.1-8.8h1.8l0.1,0.2c0.1,4.1-1.4,7.4-4.5,9.9
		c-3.1,2.5-6.8,3.7-10.9,3.7c-5.4,0-9.6-1.9-12.7-5.8c-3.1-3.9-4.6-9-4.6-15.3v-1.6c0-6.3,1.5-11.4,4.6-15.3c3-3.9,7.3-5.8,12.6-5.8
		c4.4,0,8.1,1.3,11.1,3.8c3,2.6,4.5,6.2,4.4,10.8l-0.1,0.2h-1.8c0-4.1-1.3-7.3-4-9.5c-2.7-2.2-5.9-3.3-9.6-3.3
		c-4.9,0-8.7,1.8-11.2,5.3c-2.6,3.5-3.8,8.1-3.8,13.7v1.6c0,5.6,1.3,10.2,3.8,13.7C274.8,321.6,278.6,323.3,283.6,323.3z"/>
	<path fill="#FFFFFF" d="M309.2,291.3c1.3-3.1,3.2-5.5,5.7-7.1c2.5-1.7,5.6-2.5,9.3-2.5c4.4,0,7.7,1.4,10,4.2
		c2.3,2.8,3.4,7.2,3.4,13.2v25.7h-2.1v-25.8c0-5.5-1-9.5-3.1-11.7c-2-2.3-4.8-3.4-8.2-3.4c-4.6,0-8,1.4-10.5,4.1
		c-2.4,2.7-3.9,6.2-4.6,10.4v26.4h-2.1v-60.9h2.1V291.3z"/>
	<path fill="#FFFFFF" d="M362.9,325.5c-4.8,0-9-1.9-12.5-5.8c-3.5-3.9-5.3-8.7-5.3-14.5v-2.5c0-6.1,1.7-11.1,5.1-15.1
		c3.4-4,7.6-6,12.5-6c4.8,0,8.7,1.6,11.7,4.7c3,3.1,4.5,7.3,4.5,12.6v3.2h-31.7v0.5v2.5c0,5.1,1.5,9.4,4.5,12.9
		c3,3.5,6.7,5.3,11.1,5.3c3.2,0,5.8-0.4,7.9-1.3c2.1-0.9,3.9-2.1,5.4-3.9l1.1,1.6c-1.7,1.8-3.7,3.2-6.1,4.2
		C368.9,325,366.1,325.5,362.9,325.5z M362.8,283.7c-4.2,0-7.7,1.5-10.5,4.6c-2.8,3.1-4.4,6.9-4.7,11.5l0.1,0.2h29.1v-1.3
		c0-4.3-1.3-7.9-3.9-10.7C370.3,285.1,366.9,283.7,362.8,283.7z"/>
	<path fill="#FFFFFF" d="M387.9,282.4l0.3,8.7c1.3-3,3.1-5.4,5.6-7c2.4-1.7,5.5-2.5,9.1-2.5c4.6,0,8.1,1.5,10.4,4.4
		c2.3,2.9,3.5,7.5,3.5,13.8v24.9h-2.1v-25c0-5.9-1-10-3.1-12.4c-2.1-2.4-4.9-3.6-8.5-3.6c-4.6,0-8,1.4-10.3,4.1
		c-2.3,2.7-3.8,6.2-4.3,10.4v26.4h-2.1v-42.3H387.9z"/>
</g>
</svg>
